<svg width="36" height="50" viewBox="0 0 36 50" fill="none" xmlns="http://www.w3.org/2000/svg">
<path d="M21.6951 2.66663L18.0006 9.06663L14.3049 2.66663H2L18.0006 30.3804L34 2.66663H21.6951Z" fill="#41B883"/>
<path d="M21.695 2.66663L18.0005 9.06663L14.3048 2.66663H8.3999L18.0005 19.2944L27.5999 2.66663H21.695Z" fill="#34495E"/>
<path d="M3.63961 45.452L5.63161 39.212H7.11961L4.44361 47H2.95561L0.315609 39.212H1.81561L3.78361 45.452H3.63961ZM12.3221 41.156H13.7381V47H12.3221V41.156ZM8.32608 41.156H9.74208V44.732C9.74208 45.112 9.83608 45.398 10.0241 45.59C10.2121 45.778 10.4701 45.872 10.7981 45.872C11.0781 45.872 11.3321 45.8 11.5601 45.656C11.7921 45.508 11.9761 45.292 12.1121 45.008C12.2521 44.72 12.3221 44.364 12.3221 43.94H12.7061C12.7061 44.652 12.6141 45.242 12.4301 45.71C12.2461 46.178 11.9921 46.528 11.6681 46.76C11.3441 46.992 10.9701 47.108 10.5461 47.108C10.1301 47.108 9.75408 47.034 9.41808 46.886C9.08208 46.738 8.81608 46.5 8.62008 46.172C8.42408 45.844 8.32608 45.412 8.32608 44.876V41.156ZM18.1415 47.168C17.6455 47.168 17.1915 47.04 16.7795 46.784C16.3675 46.528 16.0375 46.17 15.7895 45.71C15.5415 45.246 15.4175 44.704 15.4175 44.084C15.4175 43.444 15.5395 42.894 15.7835 42.434C16.0315 41.974 16.3615 41.622 16.7735 41.378C17.1855 41.134 17.6415 41.012 18.1415 41.012C18.6055 41.012 19.0055 41.106 19.3415 41.294C19.6815 41.478 19.9535 41.73 20.1575 42.05C20.3655 42.366 20.5055 42.724 20.5775 43.124C20.6495 43.524 20.6535 43.936 20.5895 44.36H16.5455V43.592H19.5875L19.3115 43.772C19.3235 43.584 19.3135 43.394 19.2815 43.202C19.2535 43.01 19.1975 42.834 19.1135 42.674C19.0295 42.514 18.9095 42.386 18.7535 42.29C18.6015 42.19 18.4055 42.14 18.1655 42.14C17.8775 42.14 17.6335 42.212 17.4335 42.356C17.2335 42.5 17.0815 42.696 16.9775 42.944C16.8735 43.192 16.8215 43.472 16.8215 43.784V44.348C16.8215 44.676 16.8695 44.966 16.9655 45.218C17.0655 45.47 17.2115 45.668 17.4035 45.812C17.5995 45.956 17.8455 46.028 18.1415 46.028C18.4175 46.028 18.6495 45.964 18.8375 45.836C19.0255 45.708 19.1455 45.516 19.1975 45.26H20.6255C20.5655 45.636 20.4235 45.968 20.1995 46.256C19.9795 46.54 19.6935 46.764 19.3415 46.928C18.9895 47.088 18.5895 47.168 18.1415 47.168ZM24.444 46.676V45.26C24.764 45.444 25.076 45.578 25.38 45.662C25.688 45.746 25.972 45.788 26.232 45.788C26.576 45.788 26.826 45.688 26.982 45.488C27.138 45.288 27.216 44.984 27.216 44.576V39.212H28.644V44.576C28.644 45.204 28.546 45.708 28.35 46.088C28.154 46.468 27.884 46.744 27.54 46.916C27.196 47.084 26.8 47.168 26.352 47.168C26 47.168 25.664 47.12 25.344 47.024C25.024 46.932 24.724 46.816 24.444 46.676ZM32.8603 47.168C32.3003 47.168 31.8183 47.092 31.4143 46.94C31.0143 46.784 30.7063 46.562 30.4903 46.274C30.2743 45.982 30.1643 45.632 30.1603 45.224H31.4683C31.4803 45.512 31.5943 45.722 31.8103 45.854C32.0263 45.986 32.3203 46.052 32.6923 46.052C32.8963 46.052 33.0763 46.022 33.2323 45.962C33.3923 45.902 33.5163 45.82 33.6043 45.716C33.6923 45.612 33.7363 45.496 33.7363 45.368C33.7363 45.204 33.6763 45.076 33.5563 44.984C33.4403 44.888 33.2523 44.8 32.9923 44.72L31.7203 44.264C31.2643 44.1 30.9143 43.884 30.6703 43.616C30.4263 43.348 30.3043 43.028 30.3043 42.656C30.3043 42.164 30.5263 41.768 30.9703 41.468C31.4183 41.164 32.0163 41.012 32.7643 41.012C33.5083 41.012 34.0823 41.176 34.4863 41.504C34.8943 41.828 35.1043 42.24 35.1163 42.74H33.7843C33.7643 42.548 33.6723 42.396 33.5083 42.284C33.3443 42.172 33.0963 42.116 32.7643 42.116C32.4643 42.116 32.2283 42.178 32.0563 42.302C31.8883 42.422 31.8043 42.564 31.8043 42.728C31.8043 43.004 32.0403 43.212 32.5123 43.352L33.8923 43.868C34.3403 44.02 34.6883 44.216 34.9363 44.456C35.1843 44.696 35.3083 45 35.3083 45.368C35.3083 45.676 35.2043 45.968 34.9963 46.244C34.7923 46.516 34.5063 46.738 34.1383 46.91C33.7703 47.082 33.3443 47.168 32.8603 47.168Z" fill="#3DCFB6"/>
</svg>
